<svg width="420" height="140" viewBox="0 0 420 140" fill="none" xmlns="http://www.w3.org/2000/svg">
  <rect width="420" height="140" fill="white"/>
  <g transform="translate(12,8)">
    <path d="M72 20C57 20 45 32 45 47C45 61 57 74 72 74" stroke="#F59E0B" stroke-width="8" stroke-linecap="round"/>
    <path d="M72 20C87 20 99 32 99 47C99 61 87 74 72 74" stroke="#1E40AF" stroke-width="8" stroke-linecap="round"/>
    <path d="M90 38C106 38 118 50 118 66C118 82 106 94 90 94" stroke="#16A34A" stroke-width="8" stroke-linecap="round"/>
    <path d="M54 38C38 38 26 50 26 66C26 82 38 94 54 94" stroke="#F97316" stroke-width="8" stroke-linecap="round"/>
    <circle cx="72" cy="10" r="4" fill="#F59E0B"/>
    <circle cx="60" cy="12" r="2.4" fill="#F59E0B"/>
    <circle cx="84" cy="12" r="2.4" fill="#F59E0B"/>
    <path d="M50 80C58 95 67 99 72 99C77 99 86 95 94 80" stroke="#1E40AF" stroke-width="6" stroke-linecap="round"/>
    <path d="M48 80C56 97 67 103 72 103C77 103 88 97 96 80" stroke="#16A34A" stroke-width="6" stroke-linecap="round"/>
  </g>
  <text x="150" y="78" font-family="Source Sans 3, Arial, sans-serif" font-size="64" font-weight="700" fill="#1E3A8A">Uttsav</text>
  <text x="152" y="108" font-family="Source Sans 3, Arial, sans-serif" font-size="18" font-weight="500" fill="#0F172A">
    Unified Event Permission Portal
  </text>
</svg>
